<svg xmlns="http://www.w3.org/2000/svg" xmlns:xlink="http://www.w3.org/1999/xlink" viewBox="0 0 430 430" width="430" height="430" preserveAspectRatio="xMidYMid meet" style="width: 100%; height: 100%; transform: translate3d(0px, 0px, 0px); content-visibility: visible;"><defs><clipPath id="__lottie_element_59"><rect width="430" height="430" x="0" y="0"/></clipPath><clipPath id="__lottie_element_61"><path d="M0,0 L430,0 L430,430 L0,430z"/></clipPath><g id="__lottie_element_74"><g transform="matrix(1.159999966621399,0,0,1.159999966621399,297.46099853515625,236.5)" opacity="1" style="display: block;"><path fill="rgb(178,104,54)" fill-opacity="1" d=" M61.540000915527344,-126 C61.540000915527344,-126 105.29000091552734,-77.5 130.2899932861328,-20.5 C155.2899932861328,36.5 148.1439971923828,125.5 0.46000000834465027,125.5 C-147.2239990234375,125.5 -147.19000244140625,6.507999897003174 -143.39100646972656,-18.344999313354492 C-132.29299926757812,-90.947998046875 -89.55699920654297,-132.8280029296875 -89.55699920654297,-132.8280029296875"/><g opacity="1" transform="matrix(1,0,0,1,0,0)"/></g></g><g id="__lottie_element_83"><g transform="matrix(1,0,0,1,171.02099609375,93.38499450683594)" opacity="0.96" style="mix-blend-mode: multiply; display: block;"><g opacity="1" transform="matrix(1,0,0,1,0,0)"><path fill="rgb(255,199,56)" fill-opacity="1" d=" M-19.700000762939453,-25.235000610351562 C-19.700000762939453,-25.235000610351562 19.700000762939453,29.764999389648438 19.700000762939453,29.764999389648438 C19.700000762939453,29.764999389648438 11.130000114440918,-29.764999389648438 11.130000114440918,-29.764999389648438 C5.349999904632568,-26.075000762939453 -0.5899999737739563,-23.104999542236328 -7.579999923706055,-23.104999542236328 C-11.701000213623047,-23.23200035095215 -15.782999992370605,-23.948999404907227 -19.700000762939453,-25.235000610351562z"/></g><g opacity="1" transform="matrix(-1,0,0,1,84,0)"><path fill="rgb(255,199,56)" fill-opacity="1" d=" M-19.700000762939453,-25.235000610351562 C-15.782999992370605,-23.948999404907227 -11.701000213623047,-23.23200035095215 -7.579999923706055,-23.104999542236328 C-0.5899999737739563,-23.104999542236328 5.349999904632568,-26.075000762939453 11.130000114440918,-29.764999389648438 C11.130000114440918,-29.764999389648438 19.700000762939453,29.764999389648438 19.700000762939453,29.764999389648438 C19.700000762939453,29.764999389648438 -19.700000762939453,-25.235000610351562 -19.700000762939453,-25.235000610351562z"/></g></g></g><mask id="__lottie_element_83_1" mask-type="alpha"><use xmlns:ns1="http://www.w3.org/1999/xlink" ns1:href="#__lottie_element_83"/></mask><filter id="__lottie_element_90" filterUnits="objectBoundingBox" x="0%" y="0%" width="100%" height="100%"><feComponentTransfer in="SourceGraphic"><feFuncA type="table" tableValues="1.0 0.0"/></feComponentTransfer></filter><mask id="__lottie_element_74_2" mask-type="alpha"><g filter="url(#__lottie_element_90)"><rect width="430" height="430" x="0" y="0" fill="#ffffff" opacity="0"/><use xmlns:ns2="http://www.w3.org/1999/xlink" ns2:href="#__lottie_element_74"/></g></mask></defs><g clip-path="url(#__lottie_element_59)"><g clip-path="url(#__lottie_element_61)" transform="matrix(1,0,0,1,0,0)" opacity="1" style="display: block;"><g transform="matrix(1,0,0,1,214.46099853515625,269)" opacity="1" style="display: block;"><path class="primary" fill="rgb(178,104,54)" fill-opacity="1" d=" M61.540000915527344,-126 C61.540000915527344,-126 105.29000091552734,-77.5 130.2899932861328,-20.5 C155.2899932861328,36.5 148.1439971923828,125.5 0.46000000834465027,125.5 C-147.2239990234375,125.5 -154.9600067138672,38 -130.4600067138672,-20.5 C-105.95999908447266,-79 -61.540000915527344,-125.5 -61.540000915527344,-125.5"/><g opacity="1" transform="matrix(1,0,0,1,0,0)"/></g><g mask="url(#__lottie_element_74_2)" style="display: block;"><g transform="matrix(1,0,0,1,214.46099853515625,269)" opacity="1"><path class="primary" fill="rgb(178,104,54)" fill-opacity="1" d=" M61.540000915527344,-126 C61.540000915527344,-126 105.29000091552734,-77.5 130.2899932861328,-20.5 C155.2899932861328,36.5 148.1439971923828,125.5 0.46000000834465027,125.5 C-147.2239990234375,125.5 -154.9600067138672,38 -130.4600067138672,-20.5 C-105.95999908447266,-79 -61.540000915527344,-125.5 -61.540000915527344,-125.5"/><path class="primary" fill="rgb(178,104,54)" fill-opacity="0.5" d=" M61.540000915527344,-126 C61.540000915527344,-126 105.29000091552734,-77.5 130.2899932861328,-20.5 C155.2899932861328,36.5 148.1439971923828,125.5 0.46000000834465027,125.5 C-147.2239990234375,125.5 -154.9600067138672,38 -130.4600067138672,-20.5 C-105.95999908447266,-79 -61.540000915527344,-125.5 -61.540000915527344,-125.5" style="mix-blend-mode: multiply;"/><g opacity="1" transform="matrix(1,0,0,1,0,0)"/></g></g><g transform="matrix(1,0,0,1,213.92098999023438,96.75)" opacity="1" style="display: block;"><g opacity="1" transform="matrix(1,0,0,1,0,0)"><path class="primary" fill="rgb(178,104,54)" fill-opacity="1" d=" M-61,46.75 C-61,46.75 -99.5,-46.75 -99.5,-46.75 C-99.5,-46.75 -68.19000244140625,-26.25 -49.95000076293945,-26.25 C-31.709999084472656,-26.25 -20.610000610351562,-46.5 -0.7900000214576721,-46.5 C19.030000686645508,-46.5 27.299999237060547,-26.25 48.7599983215332,-26.25 C69.97000122070312,-26.25 99.5,-46.25 99.5,-46.25 C99.5,-46.25 63,45.75 63,45.75"/></g></g><g mask="url(#__lottie_element_83_1)" style="display: block;"><g transform="matrix(1,0,0,1,213.92098999023438,96.75)" opacity="1"><g opacity="1" transform="matrix(1,0,0,1,0,0)"><path class="primary" fill="rgb(178,104,54)" fill-opacity="1" d=" M-61,46.75 C-61,46.75 -99.5,-46.75 -99.5,-46.75 C-99.5,-46.75 -68.19000244140625,-26.25 -49.95000076293945,-26.25 C-31.709999084472656,-26.25 -20.610000610351562,-46.5 -0.7900000214576721,-46.5 C19.030000686645508,-46.5 27.299999237060547,-26.25 48.7599983215332,-26.25 C69.97000122070312,-26.25 99.5,-46.25 99.5,-46.25 C99.5,-46.25 63,45.75 63,45.75"/><path class="primary" fill="rgb(178,104,54)" fill-opacity="0.5" d=" M-61,46.75 C-61,46.75 -99.5,-46.75 -99.5,-46.75 C-99.5,-46.75 -68.19000244140625,-26.25 -49.95000076293945,-26.25 C-31.709999084472656,-26.25 -20.610000610351562,-46.5 -0.7900000214576721,-46.5 C19.030000686645508,-46.5 27.299999237060547,-26.25 48.7599983215332,-26.25 C69.97000122070312,-26.25 99.5,-46.25 99.5,-46.25 C99.5,-46.25 63,45.75 63,45.75" style="mix-blend-mode: multiply;"/></g></g></g><g transform="matrix(1,0,0,1,227.70799255371094,185.5)" opacity="1" style="display: block;"><g opacity="1" transform="matrix(1,0,0,1,0,0)"><path stroke-linecap="round" stroke-linejoin="round" fill-opacity="0" class="secondary" stroke="rgb(255,199,56)" stroke-opacity="1" stroke-width="7" d=" M52.21200180053711,-42 C52.21200180053711,-42 -77.28800201416016,-42 -77.28800201416016,-42"/></g><g opacity="1" transform="matrix(1,0,0,1,0,0)"><path stroke-linecap="round" stroke-linejoin="round" fill-opacity="0" class="secondary" stroke="rgb(255,199,56)" stroke-opacity="1" stroke-width="7" d=" M61.21200180053711,42 C30.711999893188477,11.5 52.21200180053711,-42 52.21200180053711,-42"/></g><g opacity="1" transform="matrix(1,0,0,1,0,0)"><path stroke-linecap="round" stroke-linejoin="round" fill-opacity="0" class="secondary" stroke="rgb(255,199,56)" stroke-opacity="1" stroke-width="7" d=" M75.71199798583984,8.5 C84.71199798583984,-27 52.21200180053711,-42 52.21200180053711,-42"/></g></g><g transform="matrix(1,0,0,1,213.99899291992188,277.864990234375)" opacity="1" style="display: block;"><g opacity="1" transform="matrix(1,0,0,1,0,0)"><path stroke-linecap="round" stroke-linejoin="round" fill-opacity="0" class="secondary" stroke="rgb(255,199,56)" stroke-opacity="1" stroke-width="7" d=" M0.0010000000474974513,-66.71499633789062 C0.0010000000474974513,-66.71499633789062 0.0010000000474974513,-44.8650016784668 0.0010000000474974513,-44.8650016784668 M0.0010000000474974513,44.80500030517578 C0.0010000000474974513,44.80500030517578 0.0010000000474974513,66.71499633789062 0.0010000000474974513,66.71499633789062 M-30.208999633789062,29.135000228881836 C-25.81800079345703,34.65999984741211 -20.093000411987305,38.97600173950195 -13.571999549865723,41.67599868774414 C-7.051000118255615,44.375999450683594 0.05000000074505806,45.369998931884766 7.060999870300293,44.564998626708984 C12.739999771118164,43.97200012207031 18.136999130249023,41.78799819946289 22.631000518798828,38.26499938964844 C24.854999542236328,36.49300003051758 26.679000854492188,34.270999908447266 27.983999252319336,31.743999481201172 C29.288999557495117,29.216999053955078 30.04400062561035,26.444000244140625 30.201000213623047,23.604999542236328 C31.000999450683594,-9.414999961853027 -28.999000549316406,7.244999885559082 -25.589000701904297,-25.084999084472656 C-24.698999404907227,-33.595001220703125 -17.839000701904297,-40.80500030517578 -9.699000358581543,-43.44499969482422 C5.151000022888184,-48.244998931884766 21.881000518798828,-40.29499816894531 29.51099967956543,-27.2450008392334"/></g></g></g></g></svg>